# xmcd
#
# Track frame offsets:
#	150
#	21460
#	40545
#	64390
#	86330
#	106160
#	127410
#	146498
#	165058
#	181915
#	198000
#
# Disc length: 2968 seconds
#
# Revision: 0
# Processed by: cddbd v1.4PL0 Copyright (c) Steve Scherf et al.
# Submitted via: EasyCDDAExtractor 5.0.5.1
#
DISCID=8a0b960b
DTITLE=Richard Marx - Repeat Offender
DYEAR=1989
DGENRE=Country
TTITLE0=Nothin' You Can Do About It
TTITLE1=Satisfied
TTITLE2=Angella
TTITLE3=Too Late To Say Goodbye
TTITLE4=Right Here Waiting
TTITLE5=Heart On The Line
TTITLE6=Real World
TTITLE7=If You Don't Want My Love
TTITLE8=That Was Lulu
TTITLE9=Wait For The Sunrise
TTITLE10=Children Of The Night
EXTD=
EXTT0=
EXTT1=
EXTT2=
EXTT3=
EXTT4=
EXTT5=
EXTT6=
EXTT7=
EXTT8=
EXTT9=
EXTT10=
PLAYORDER=
